<svg xmlns="http://www.w3.org/2000/svg" height="24" viewBox="0 -960 960 960" width="24"><path d="M505.846-506q21.077-22.808 30.173-53 9.096-30.192 9.096-61.923t-8.846-61.923q-8.846-30.193-30.423-53 43.654 4.153 72.231 37.327 28.577 33.173 28.577 77.596t-28.577 77.596Q549.5-510.154 505.846-506Zm191.692 282.616q3.462-8.972 5.827-18.545 2.366-9.573 2.366-20.01v-25.08q0-28.453-10.192-54.14-10.193-25.687-32.116-42.38 39.382 12.016 71.672 34.95 32.29 22.935 32.29 61.313v25.554q0 16.295-11.025 27.316-11.024 11.022-27.324 11.022h-31.498Zm69.847-317.731h-60.731q-7.769 0-13.211-5.258Q688-551.631 688-559.412q0-7.78 5.443-13.203 5.442-5.424 13.211-5.424h60.731v-60.73q0-7.77 5.45-13.212t13.038-5.442q7.589 0 13.012 5.442t5.423 13.212v60.73h61.115q7.327 0 12.798 5.45 5.472 5.451 5.472 13.231 0 7.781-5.472 13.012-5.471 5.231-12.798 5.231h-61.115V-480q0 7.769-5.534 13.019t-12.955 5.25q-7.42 0-12.927-5.25T767.385-480v-61.115ZM351.077-504q-48.577 0-82.654-34.269t-34.077-82.654q0-48.385 34.065-82.654t82.858-34.269q48.385 0 82.654 34.269t34.269 82.654q0 48.385-34.269 82.654T351.077-504ZM76.807-261.846v-23.784q0-24.213 13.884-44.937 13.883-20.724 38.138-32.367 55.594-26.528 111.388-40.047Q296.012-416.5 351.16-416.5q55.148 0 110.859 13.519 55.712 13.519 111.567 40.181 24.029 11.685 38.087 32.368 14.058 20.683 14.058 44.848v23.738q0 16.346-11.262 27.404t-27.038 11.058H115.269q-16.346 0-27.404-11.058t-11.058-27.404ZM351.27-540.923q33 0 56.5-23.5t23.5-56.5q0-33-23.5-56.5t-56.5-23.5q-33.385 0-56.692 23.5-23.308 23.5-23.308 56.5t23.308 56.5q23.307 23.5 56.692 23.5ZM113.731-260.308h475.076v-25.132q0-13.596-8.576-25.251-8.577-11.655-24.231-20.117-48.885-23.807-100.521-36.288-51.635-12.481-104.21-12.481-52.79 0-104.51 12.481-51.721 12.481-100.605 36.288-15.654 8.462-24.039 20.19-8.384 11.728-8.384 25.08v25.23Zm237.538-360.615Zm0 360.615Z"/></svg>