<svg xmlns="http://www.w3.org/2000/svg" height="24" viewBox="0 -960 960 960" width="24"><path d="M728.654-540.615h-100.5q-7.769 0-13.019-5.534-5.25-5.535-5.25-12.955t5.25-12.927q5.25-5.508 13.019-5.508h100.5v-100.499q0-7.327 5.258-12.799 5.257-5.471 13.038-5.471 7.781 0 13.204 5.471 5.423 5.472 5.423 12.799v100.499h100.115q7.77 0 13.212 5.479t5.442 12.818q0 7.781-5.442 13.204-5.442 5.423-13.212 5.423H765.577V-440.5q0 7.769-5.45 13.212-5.45 5.442-13.231 5.442t-13.011-5.442q-5.231-5.443-5.231-13.212v-100.115ZM360.615-504q-48.384 0-82.654-34.269-34.269-34.269-34.269-82.654t34.269-82.654q34.27-34.269 82.654-34.269 48.385 0 82.654 34.269 34.27 34.269 34.27 82.654t-34.27 82.654Q409-504 360.615-504ZM86.154-261.846v-23.769q0-24.197 13.858-44.907 13.859-20.711 38.073-32.347 56.25-26.56 111.871-40.096Q305.577-416.5 360.627-416.5q55.051 0 110.75 13.519 55.7 13.519 111.861 40.086 24.172 11.638 38.006 32.355 13.833 20.716 13.833 44.919v23.775q0 16.346-11.058 27.404-11.057 11.058-27.404 11.058h-472q-16.346 0-27.404-11.058-11.057-11.058-11.057-27.404Zm36.923 1.538h475.077v-25.132q0-13.596-8.577-25.251-8.577-11.655-23.846-20.117-49.369-23.807-100.988-36.288-51.62-12.481-104.177-12.481-52.908 0-104.352 12.481-51.445 12.481-100.329 36.288-15.654 8.462-24.231 20.19-8.577 11.728-8.577 25.08v25.23Zm237.538-280.615q33 0 56.5-23.5t23.5-56.5q0-33-23.5-56.5t-56.5-23.5q-33 0-56.5 23.5t-23.5 56.5q0 33 23.5 56.5t56.5 23.5Zm0-80Zm0 360.615Z"/></svg>