<svg xmlns="http://www.w3.org/2000/svg" height="24" viewBox="0 -960 960 960" width="24"><path d="M480-100.001q-70.769 0-132.615-26.77-61.846-26.769-107.846-72.768-45.999-46-72.768-107.846-26.77-61.846-26.77-132.615t26.77-132.615q26.769-61.846 72.768-107.846 46-45.999 107.846-72.768 61.846-26.77 132.615-26.77t132.615 26.77q61.846 26.769 107.846 72.768 45.999 46 72.768 107.846 26.77 61.846 26.77 132.615t-26.77 132.615q-26.769 61.846-72.768 107.846-46 45.999-107.846 72.768-61.846 26.77-132.615 26.77ZM480-440Zm118.924 161.076 42.152-42.152-131.077-131.078V-640h-59.998v212.154l148.923 148.922ZM230.154-844.46l42.153 42.153-154.614 154.614-42.153-42.153L230.154-844.46Zm499.692 0L884.46-689.846l-42.153 42.153-154.614-154.614 42.153-42.153ZM480-160q116.615 0 198.308-81.692Q760-323.385 760-440t-81.692-198.308Q596.615-720 480-720t-198.308 81.692Q200-556.615 200-440t81.692 198.308Q363.385-160 480-160Z"/></svg>