<svg xmlns="http://www.w3.org/2000/svg" height="24" viewBox="0 -960 960 960" width="24"><path d="M563.846-516.154h272.308v-192.307H563.846v192.307ZM700-563.846l-99.231-69.23v-37.693L700-601.538l99.231-69.231v37.693L700-563.846ZM92.309-147.694q-30.308 0-51.308-21t-21-51.307v-519.998q0-30.307 21-51.307 21-21 51.308-21H867.69q30.308 0 51.308 21t21 51.307v519.998q0 30.307-21 51.307-21 21-51.308 21H92.309Zm521.382-59.999h254q4.616 0 8.463-3.846 3.846-3.847 3.846-8.462v-519.998q0-4.615-3.846-8.462-3.847-3.846-8.463-3.846H92.309q-4.616 0-8.463 3.846Q80-744.614 80-739.999v519.998q0 4.615 3.846 8.462 3.847 3.846 8.463 3.846h14q42-64.614 109.077-102.306Q282.462-347.691 360-347.691q77.538 0 144.614 37.692 67.077 37.692 109.077 102.306ZM360-395.384q45.769 0 77.884-32.115 32.115-32.116 32.115-77.885 0-45.768-32.115-77.884-32.115-32.115-77.884-32.115t-77.884 32.115q-32.115 32.116-32.115 77.884 0 45.769 32.115 77.885 32.115 32.115 77.884 32.115ZM182-207.693h356q-34.385-38-80.692-59-46.308-21-97.308-21-51 0-97 21t-81 59Zm178-247.69q-20.846 0-35.424-14.577-14.577-14.577-14.577-35.424 0-20.846 14.577-35.423 14.578-14.577 35.424-14.577t35.424 14.577q14.577 14.577 14.577 35.423 0 20.847-14.577 35.424-14.578 14.577-35.424 14.577ZM480-480Z"/></svg>