<svg xmlns="http://www.w3.org/2000/svg" height="24" viewBox="0 -960 960 960" width="24"><path d="M480-108.078q-77.183 0-145.066-29.325-67.883-29.324-118.099-79.595-50.215-50.27-79.486-118.055t-29.271-144.855q0-77.152 29.325-145.066 29.324-67.914 79.595-118.152 50.27-50.238 118.055-79.517 67.785-29.279 144.855-29.279 77.152 0 145.066 29.33t118.152 79.609q50.238 50.28 79.517 118.108 29.279 67.829 29.279 144.949v47.049q0 53.104-36.83 90.163-36.829 37.059-89.939 37.059-35.077 0-64.5-17.462-29.423-17.462-46.461-47.462-24.808 30.616-59.904 47.77-35.096 17.154-74.145 17.154-72.95 0-123.719-50.769Q305.655-407.193 305.655-480q0-72.807 50.769-123.576Q407.193-654.345 480-654.345q72.807 0 123.576 50.769 50.769 50.769 50.769 123.495v47.234q0 29.462 20.715 50.347t50.093 20.885q29.379 0 50.094-20.885t20.715-50.347V-480q0-131.903-92.026-223.932-92.026-92.03-223.923-92.03-131.898 0-223.936 92.026-92.039 92.026-92.039 223.923 0 131.898 92.03 223.936Q348.097-164.038 480-164.038h169.693q11.413 0 19.649 8.239 8.235 8.239 8.235 19.658 0 11.64-8.235 19.851-8.236 8.212-19.649 8.212H480Zm-.095-253.537q49.287 0 83.883-34.502 34.597-34.501 34.597-83.788t-34.501-83.883q-34.502-34.597-83.789-34.597t-83.883 34.501q-34.597 34.502-34.597 83.789t34.502 83.883q34.501 34.597 83.788 34.597Z"/></svg>