<svg xmlns="http://www.w3.org/2000/svg" height="24" viewBox="0 -960 960 960" width="24"><path d="m419.269-225.231 214.269-256.884H471.423l29.808-232.962-192.269 277h140.615l-30.308 212.846Zm-33.767-156.886H261.386q-18.845 0-27.422-16.788-8.577-16.788 2.307-32.211l262.882-379.996q7.077-10.808 19.058-14.404 11.98-3.596 24.403.75 12.231 4.539 18.404 15.711 6.172 11.173 4.749 23.711l-30.884 247.268h151.653q20.269 0 28.231 17.943 7.961 17.942-4.846 33.364L419.347-137.772q-8.193 9.692-20.019 12.48-11.827 2.789-23.25-2.365-11.423-4.961-17.192-15.788t-4.153-23.25l30.769-215.422ZM471.5-470.5Z"/></svg>