<svg xmlns="http://www.w3.org/2000/svg" height="24" viewBox="0 -960 960 960" width="24"><path d="M613.726-528.501q21.12 0 35.908-14.783 14.788-14.784 14.788-35.904 0-21.119-14.783-35.908-14.784-14.788-35.904-14.788-21.12 0-35.908 14.784-14.788 14.783-14.788 35.903 0 21.12 14.784 35.908 14.783 14.788 35.903 14.788Zm-267.461 0q21.12 0 35.908-14.783 14.788-14.784 14.788-35.904 0-21.119-14.784-35.908-14.783-14.788-35.903-14.788-21.12 0-35.908 14.784-14.788 14.783-14.788 35.903 0 21.12 14.783 35.908 14.784 14.788 35.904 14.788Zm133.827 420.423q-77.152 0-145.066-29.325-67.914-29.324-118.152-79.595-50.238-50.27-79.517-118.055-29.279-67.785-29.279-144.855 0-77.152 29.325-145.066 29.324-67.914 79.595-118.152 50.27-50.238 118.055-79.517 67.785-29.279 144.855-29.279 77.152 0 145.066 29.325 67.914 29.324 118.152 79.595 50.238 50.27 79.517 118.055 29.279 67.785 29.279 144.855 0 77.152-29.325 145.066-29.324 67.914-79.595 118.152-50.27 50.238-118.055 79.517-67.785 29.279-144.855 29.279ZM480-480Zm-.013 315.962q131.898 0 223.936-92.026 92.039-92.026 92.039-223.923 0-131.898-92.026-223.936-92.026-92.039-223.923-92.039-131.898 0-223.936 92.026-92.039 92.026-92.039 223.923 0 131.898 92.026 223.936 92.026 92.039 223.923 92.039Zm-.133-113.117q52.374 0 96.656-24.685 44.283-24.686 72.435-67.096 5.631-10.603-.257-21.237-5.888-10.635-18.433-10.635H329.834q-12.641 0-18.525 10.635-5.885 10.634-.013 21.057 27.897 42.577 72.492 67.269 44.595 24.692 96.066 24.692Z"/></svg>