<svg xmlns="http://www.w3.org/2000/svg" height="24" viewBox="0 -960 960 960" width="24"><path d="M823.653-615.152q26.615 0 47.442 20.826 20.827 20.827 20.827 47.442v63.092q0 6.165-1.18 13.21-1.179 7.045-3.243 12.812L774.461-192.948q-8.128 19.278-28.179 32.074-20.052 12.796-41.144 12.796H292.501v-467.074l222.692-221.5q12.538-12.538 28.634-15.654 16.095-3.115 30.114 4.385 13.635 7.692 19.615 23.307 5.981 15.615 1.635 33.499l-39.539 175.963h268.001ZM348.461-591.73v387.692h358.346q4.231 0 8.654-2.308 4.424-2.308 6.732-7.693l113.769-265.653v-67.192q0-5.385-3.462-8.847-3.462-3.461-8.847-3.461H485.462L534.5-776.808 348.461-591.73ZM177.155-148.078q-28.161 0-48.215-20.054-20.054-20.054-20.054-48.215v-330.537q0-28.161 20.054-48.215 20.054-20.053 48.215-20.053h115.346v55.96H177.155q-5.385 0-8.847 3.461-3.462 3.462-3.462 8.847v330.537q0 5.385 3.462 8.847 3.462 3.462 8.847 3.462h115.346v55.96H177.155Zm171.306-55.96V-591.73v387.692Z"/></svg>