<svg xmlns="http://www.w3.org/2000/svg" height="24" viewBox="0 -960 960 960" width="24"><path d="M208.038-205.538q-26.346 0-43.942-17.801-17.596-17.8-17.596-43.586v-426.15q0-25.786 17.596-43.586 17.596-17.801 43.942-17.801h426.009q25.775 0 43.576 17.801 17.8 17.8 17.8 43.738v186.769L787.27-598q7.076-7.077 16.846-3.488 9.769 3.59 9.769 13.795v215.545q0 9.982-9.769 13.604-9.77 3.621-16.846-3.456l-91.847-91.846v186.769q0 25.938-17.8 43.738-17.801 17.801-43.576 17.801H208.038Zm0-36.924h425.847q10.384 0 17.5-6.923 7.115-6.923 7.115-17.692v-425.846q0-10.769-7.115-17.692-7.116-6.923-17.5-6.923H208.038q-10.769 0-17.692 6.923t-6.923 17.692v425.846q0 10.769 6.923 17.692t17.692 6.923Zm-24.615 0v-475.076 475.076Z"/></svg>